<?xml version="1.0" encoding="UTF-8" standalone="no"?>
<!DOCTYPE svg PUBLIC "-//W3C//DTD SVG 1.1//EN" "http://www.w3.org/Graphics/SVG/1.1/DTD/svg11.dtd">
<svg width="100%" height="100%" viewBox="0 0 1654 731" version="1.1" xmlns="http://www.w3.org/2000/svg" xmlns:xlink="http://www.w3.org/1999/xlink" xml:space="preserve" xmlns:serif="http://www.serif.com/" style="fill-rule:evenodd;clip-rule:evenodd;stroke-linejoin:round;stroke-miterlimit:2;">
    <g id="path1" transform="matrix(0.5,0,0,0.5,0.000034,0)">
        <path d="M1653.745,349.777C1506.648,349.777 1373.193,415.455 1291.788,512.565L1317.611,544.38C1391.538,452.58 1517.305,389.46 1653.745,389.46C1790.2,389.46 1915.96,452.58 1989.888,544.38L2015.71,512.565C1934.298,415.455 1800.851,349.777 1653.745,349.777ZM1309.668,370.395C1299.993,378.248 1288.743,382.08 1278.813,380.902C1266.228,379.462 1258.585,374.317 1246.06,358.89L1173.925,270.397L1135.03,301.942L1213.593,398.392C1230.288,418.815 1249.323,429.75 1271.755,431.805C1274.41,432.053 1277.035,432.188 1279.63,432.21C1301.38,432.397 1321.578,424.748 1341.153,408.945C1362.955,391.17 1374.925,370.538 1377.73,345.863C1380.28,323.505 1373.448,302.678 1356.798,282.202L1278.251,185.782L1239.356,217.327L1311.461,305.865L1311.461,305.88C1324.031,321.248 1327.503,329.775 1326.341,342.382C1325.471,352.305 1319.396,362.52 1309.668,370.395ZM1575.693,91.605L1449.693,117.127C1443.94,118.29 1439.388,121.162 1436.56,125.452C1433.703,129.735 1432.825,135.022 1433.988,140.76L1459.098,264.217C1463.185,284.295 1472.208,298.755 1485.918,307.2C1494.985,312.78 1505.86,315.57 1518.393,315.562C1524.775,315.555 1531.593,314.82 1538.808,313.358L1617.558,297.413L1608.085,250.808L1531.473,266.333C1515.79,269.498 1510.698,267.765 1507.12,250.2L1504.428,236.955L1593.04,219.008L1583.673,172.935L1495.053,190.875L1488.325,157.823L1585.173,138.203L1575.693,91.605ZM1820.703,158.97L1896.205,178.485L1908.138,132.54L1830.498,112.47C1787.943,101.467 1758.798,117.367 1748.448,157.23L1716.745,279.315C1715.283,284.985 1715.875,290.302 1718.478,294.727C1721.08,299.145 1725.453,302.25 1731.13,303.72L1759.953,311.167L1780.383,232.207L1867.765,254.797L1879.57,209.385L1792.158,186.78L1795.555,173.73C1800.048,156.42 1805.223,154.965 1820.703,158.97ZM2212.48,270.472L2239.135,237.63C2225.898,224.415 2212.12,211.59 2197.765,199.23C2048.613,70.748 1855.406,0 1653.745,0C1452.093,0 1258.893,70.748 1109.726,199.23C1095.378,211.59 1081.593,224.407 1068.356,237.623L1095.011,270.465C1108.473,256.875 1122.543,243.698 1137.236,231.03C1278.761,109.14 1462.188,42.015 1653.745,42.015C1845.303,42.015 2028.731,109.14 2170.248,231.03C2184.956,243.698 2199.018,256.875 2212.481,270.473ZM2009.005,433.462L2017.653,403.695L1980.453,375.96L2010.408,354.547L2027.755,367.552L2047.458,301.26L1933.128,375.03L1886.26,348.57L2065.593,232.762C2072.508,228.292 2081.965,224.355 2093.936,233.542L2101.601,239.437C2113.683,248.722 2111.958,259.357 2109.595,266.55L2050.068,470.97L2009.005,433.462ZM1165.03,1401.562L1032.775,1401.562L1032.775,1300.215L1111.593,1300.215L1143.858,1327.672L1144.938,1327.672L1144.938,1224.21L1143.858,1224.21L1111.593,1251.668L1032.775,1251.668L1032.775,1163.505L1160.275,1163.505L1197.31,1203.105L1198.36,1203.105L1194.13,1115.46L922.195,1115.46L922.195,1116.533L947.088,1146.615L947.088,1418.993L922.195,1449.068L922.195,1450.125L1205.77,1450.125L1212.648,1349.31L1211.575,1349.31L1165.03,1401.562ZM1214.995,727.942L1308.648,966.54L1361.02,966.54L1447.788,725.317L1462.585,935.378L1429.78,965.46L1429.78,966.54L1572.085,966.54L1572.085,965.46L1544.598,935.378L1524.468,663L1546.173,632.918L1546.173,631.875L1427.68,631.875L1347.258,855.135L1260.491,631.875L1140.408,631.875L1140.408,632.918L1164.753,663L1150.45,935.378L1121.38,965.46L1121.38,966.54L1238.268,966.54L1238.268,965.46L1209.19,935.378L1214.995,727.942ZM821.216,1401.03L706.428,1401.03L706.428,1146.615L737.654,1116.533L737.654,1115.46L595.852,1115.46L595.852,1116.533L620.741,1146.615L620.741,1418.993L595.852,1448.535L595.852,1450.125L861.952,1450.125L874.664,1345.102L873.584,1345.102L821.212,1401.03L821.216,1401.03ZM564.941,965.46L564.941,966.54L699.858,966.54L699.858,965.46L674.968,935.378L674.968,663L699.858,632.918L699.858,631.875L564.941,631.875L564.941,632.918L589.283,663L589.283,764.355L469.2,764.355L469.2,663L493.542,632.918L493.542,631.875L358.632,631.875L358.632,632.918L383.503,663L383.503,935.378L358.632,965.46L358.632,966.54L493.542,966.54L493.542,965.46L469.2,935.378L469.2,817.673L589.283,817.673L589.283,935.378L564.941,965.46ZM2671.991,1401.562L2539.728,1401.562L2539.728,1300.215L2618.538,1300.215L2650.811,1327.672L2651.883,1327.672L2651.883,1224.21L2650.811,1224.21L2618.538,1251.668L2539.728,1251.668L2539.728,1163.505L2667.236,1163.505L2704.256,1203.105L2705.306,1203.105L2701.091,1115.46L2429.156,1115.46L2429.156,1116.533L2454.041,1146.615L2454.041,1418.993L2429.156,1449.068L2429.156,1450.125L2712.723,1450.125L2719.608,1349.31L2718.528,1349.31L2671.991,1401.562ZM1457.891,1316.572L1418.231,1183.582L1371.663,1316.572L1457.891,1316.572ZM1576.391,1418.993L1603.901,1449.068L1603.901,1450.125L1460.553,1450.125L1460.553,1449.068L1488.063,1418.993L1472.726,1366.74L1354.226,1366.74L1336.218,1418.993L1362.146,1449.068L1362.146,1450.125L1249.998,1450.125L1249.998,1449.068L1276.458,1418.993L1379.613,1146.615L1360.031,1116.533L1360.031,1115.46L1473.768,1115.46L1576.391,1418.993ZM202.091,922.193C133.302,922.193 89.396,852.503 89.396,792.315C89.396,718.425 129.596,670.403 187.263,670.403C202.602,670.403 217.43,671.985 230.66,675.653L282.494,739.545L283.562,739.545L279.855,633.967C265.027,628.17 232.778,620.235 193.088,620.235C70.373,620.235 0,703.65 0,799.717C0,894.742 67.711,978.12 184.095,978.12C215.312,978.12 261.337,967.582 293.077,943.83L297.835,888.405L296.785,888.405C269.813,909.51 231.164,922.193 202.09,922.193L202.091,922.193ZM2128.465,965.46L2104.128,935.378L2104.128,663L2128.466,632.918L2128.466,631.875L1993.556,631.875L1993.556,632.918L2018.426,663L2018.426,935.378L1993.556,965.46L1993.556,966.54L2128.466,966.54L2128.465,965.46ZM1832.53,1293.352L1865.845,1323.465L1865.845,1386.277C1855.255,1398.405 1836.745,1408.425 1811.898,1408.425C1752.64,1408.425 1721.425,1336.117 1721.425,1275.412C1721.425,1209.428 1754.77,1154.01 1823.53,1154.01C1842.573,1154.01 1862.68,1155.6 1879.068,1161.382L1931.98,1218.382L1933.03,1218.382L1929.85,1126.553C1899.175,1110.713 1862.14,1103.88 1824.58,1103.88C1711.908,1103.88 1632.018,1173.023 1632.018,1287.03C1632.018,1382.55 1693.39,1461.758 1789.135,1461.758C1830.94,1461.758 1869.018,1452.24 1904.463,1426.395L1946.238,1461.758L1947.318,1461.758L1947.318,1323.465L1973.755,1293.352L1973.755,1292.303L1832.53,1292.303L1832.53,1293.352ZM1744.968,803.955C1755.558,807.12 1767.708,808.695 1780.413,808.695C1826.981,808.695 1847.081,783.36 1847.081,745.875C1847.081,701.528 1821.153,680.43 1772.995,680.43L1744.968,680.43L1744.968,803.955ZM1659.281,935.378L1659.281,663L1634.396,632.918L1634.396,631.875L1793.118,631.875C1889.403,631.875 1933.308,675.653 1933.308,742.207C1933.308,811.342 1880.936,854.092 1809.521,854.092C1786.248,854.092 1762.436,852.502 1744.968,848.295L1744.968,935.377L1779.881,965.46L1779.881,966.54L1634.396,966.54L1634.396,965.46L1659.281,935.378ZM2458.555,823.47C2458.555,765.42 2436.873,673.035 2362.788,673.035C2303.538,673.035 2286.611,732.15 2286.611,772.26C2286.611,830.865 2310.956,925.35 2382.386,925.35C2433.678,925.35 2458.556,876.773 2458.556,823.47ZM2369.673,978.12C2264.928,978.12 2197.218,892.08 2197.218,794.46C2197.218,693.623 2274.978,620.235 2372.328,620.235C2479.706,620.235 2548.488,704.183 2548.488,800.25C2548.488,910.043 2465.433,978.12 2369.673,978.12ZM2257.795,1116.533L2285.313,1146.615L2285.313,1337.19C2285.313,1392.075 2258.335,1405.8 2214.423,1405.8C2169.978,1405.8 2143.008,1393.118 2143.008,1337.19L2143.008,1146.615L2170.518,1116.533L2170.518,1115.46L2032.428,1115.46L2032.428,1116.533L2057.305,1146.615L2057.305,1337.19C2057.305,1428.48 2103.858,1461.758 2203.3,1461.758C2293.773,1461.758 2339.8,1430.603 2339.8,1339.815L2339.8,1146.615L2364.115,1116.533L2364.115,1115.46L2257.795,1115.46L2257.795,1116.533ZM2896.728,1157.655C2896.728,1133.865 2878.645,1115.88 2855.83,1115.88C2832.768,1115.88 2814.715,1133.865 2814.715,1157.655C2814.715,1181.932 2832.768,1199.797 2855.83,1199.797C2878.645,1199.797 2896.728,1181.932 2896.728,1157.655ZM2906.875,1157.655C2906.875,1186.86 2883.303,1208.16 2855.83,1208.16C2828.118,1208.16 2804.583,1186.86 2804.583,1157.655C2804.583,1128.803 2828.118,1107.473 2855.83,1107.473C2883.303,1107.473 2906.875,1128.803 2906.875,1157.655ZM2855.755,1154.175C2863.195,1154.175 2869.893,1153.77 2869.893,1144.807C2869.893,1137.585 2863.353,1136.28 2857.15,1136.28L2845.128,1136.28L2845.128,1154.175L2855.755,1154.175ZM2864.02,1161.277L2880.445,1186.852L2870.65,1186.852L2855.358,1161.69L2845.128,1161.69L2845.128,1186.852L2836.376,1186.852L2836.376,1128.803L2858.531,1128.803C2872.286,1128.803 2879.058,1133.865 2879.058,1145.295C2879.058,1155.69 2872.518,1160.175 2864.021,1161.278ZM2842.03,632.917L2874.311,663L2874.311,840.36L2738.336,631.875L2616.131,631.875L2616.131,632.917L2641.008,663L2641.008,935.378L2616.13,965.46L2616.13,966.54L2727.753,966.54L2727.753,965.46L2694.97,935.378L2694.97,713.67L2864.763,966.54L2928.258,966.54L2928.258,663L2953.113,632.918L2953.113,631.875L2842.03,631.875L2842.03,632.917ZM3183.16,760.672C3122.32,743.782 3103.811,736.387 3103.811,708.42C3103.811,676.222 3145.615,669.87 3172.061,669.87C3194.283,669.87 3214.916,672.495 3233.433,678.315L3284.215,733.222L3285.265,733.222L3281.043,638.715C3249.281,626.595 3215.966,620.235 3177.888,620.235C3097.998,620.235 3021.288,647.692 3021.288,726.892C3021.288,778.08 3056.733,808.695 3133.443,829.822C3192.701,846.18 3221.801,856.725 3221.801,886.822C3221.801,921.653 3177.356,929.033 3147.716,929.033C3122.861,929.033 3100.638,925.35 3081.581,919.538L3030.288,856.2L3029.215,856.2L3032.92,956.483C3067.855,972.323 3110.17,978.12 3149.83,978.12C3235.533,978.12 3307.488,942.248 3307.488,869.933C3307.488,801.833 3260.41,782.31 3183.16,760.673ZM860.561,832.98L946.788,832.98L907.128,699.952L860.561,832.98ZM851.053,966.54L738.896,966.54L738.896,965.46L765.366,935.378L868.521,663L848.938,632.918L848.938,631.875L962.668,631.875L1065.298,935.378L1092.808,965.46L1092.808,966.54L949.453,966.54L949.453,965.46L976.971,935.378L961.626,883.125L843.126,883.125L825.126,935.378L851.053,965.46L851.053,966.54Z" style="fill:white;fill-rule:nonzero;"/>
    </g>
</svg>
