<?xml version="1.0" encoding="UTF-8" standalone="no"?>
<!DOCTYPE svg PUBLIC "-//W3C//DTD SVG 1.1//EN" "http://www.w3.org/Graphics/SVG/1.1/DTD/svg11.dtd">
<svg width="100%" height="100%" viewBox="0 0 632 288" version="1.1" xmlns="http://www.w3.org/2000/svg" xmlns:xlink="http://www.w3.org/1999/xlink" xml:space="preserve" xmlns:serif="http://www.serif.com/" style="fill-rule:evenodd;clip-rule:evenodd;stroke-linejoin:round;stroke-miterlimit:2;">
    <g transform="matrix(0.1,0,0,-0.1,0,288)">
        <path d="M2916,2774C2702,2741 2492,2662 2312,2546C2229,2493 2080,2370 2080,2355C2080,2349 2091,2334 2103,2321L2127,2299L2176,2345C2351,2506 2604,2633 2855,2686C2926,2701 2987,2705 3150,2705C3313,2705 3374,2701 3445,2686C3694,2634 3949,2508 4119,2354L4183,2296L4207,2324L4231,2353L4198,2387C4180,2406 4127,2450 4080,2484C3801,2691 3492,2791 3143,2789C3067,2788 2965,2782 2916,2774Z" style="fill:white;fill-rule:nonzero;"/>
        <path d="M2955,2615C2950,2613 2901,2602 2848,2590C2759,2571 2750,2566 2750,2546C2750,2500 2800,2280 2816,2256C2843,2214 2887,2206 2982,2225C3096,2247 3089,2243 3080,2285C3075,2305 3069,2324 3067,2327C3064,2329 3025,2324 2980,2315C2893,2297 2881,2301 2880,2341C2880,2359 2895,2364 2971,2375C3035,2384 3040,2390 3033,2433C3027,2475 3025,2476 2930,2455C2861,2440 2847,2445 2852,2485C2855,2501 2869,2507 2935,2520C3020,2536 3029,2545 3016,2596C3010,2619 2987,2626 2955,2615Z" style="fill:white;fill-rule:nonzero;"/>
        <path d="M3372,2574C3359,2565 3344,2546 3339,2531C3323,2491 3270,2287 3270,2267C3270,2252 3321,2220 3343,2220C3346,2220 3356,2252 3366,2290C3386,2368 3387,2369 3466,2345C3538,2323 3547,2325 3560,2366C3567,2385 3570,2403 3568,2405C3566,2407 3531,2417 3490,2427C3415,2446 3400,2459 3419,2490C3428,2502 3437,2502 3492,2491C3527,2483 3565,2475 3576,2473C3594,2469 3600,2475 3610,2505C3617,2525 3620,2544 3617,2546C3607,2557 3464,2590 3430,2590C3410,2590 3384,2583 3372,2574Z" style="fill:white;fill-rule:nonzero;"/>
        <path d="M2422,2421L2389,2393L2459,2309C2498,2263 2535,2215 2541,2202C2557,2173 2544,2134 2508,2107C2465,2075 2439,2090 2354,2193C2311,2243 2272,2286 2266,2287C2260,2289 2242,2278 2227,2264C2202,2243 2200,2237 2212,2222C2288,2124 2368,2035 2394,2019C2477,1969 2610,2032 2639,2136C2648,2170 2642,2208 2622,2246C2609,2271 2470,2444 2462,2447C2458,2448 2440,2436 2422,2421Z" style="fill:white;fill-rule:nonzero;"/>
        <path d="M3761,2270C3677,2215 3603,2169 3596,2166C3582,2160 3625,2122 3655,2114C3672,2110 3701,2124 3769,2169C3819,2203 3863,2230 3868,2230C3876,2230 3870,2205 3845,2131C3841,2120 3837,2120 3825,2130C3813,2140 3805,2139 3785,2126C3753,2105 3754,2099 3790,2075C3816,2058 3820,2050 3815,2025C3811,1999 3816,1988 3845,1960L3879,1927L3888,1951C3893,1964 3919,2049 3945,2140C3971,2231 3995,2310 3997,2316C4003,2333 3960,2370 3936,2369C3924,2369 3846,2324 3761,2270Z" style="fill:white;fill-rule:nonzero;"/>
        <path d="M2993,2136C2866,2112 2746,2063 2644,1993C2597,1962 2490,1863 2490,1852C2491,1848 2500,1834 2510,1821L2530,1798L2595,1858C2837,2085 3199,2139 3505,1996C3595,1953 3691,1885 3743,1827L3770,1796L3798,1823L3825,1851L3765,1908C3656,2011 3523,2084 3370,2124C3282,2147 3085,2153 2993,2136Z" style="fill:white;fill-rule:nonzero;"/>
        <path d="M365,1661C259,1635 176,1569 136,1481C70,1333 100,1143 205,1051C274,990 316,975 415,975C531,975 594,1001 651,1072C690,1122 719,1194 706,1208C702,1212 672,1215 640,1215C582,1215 579,1214 530,1165C481,1116 478,1115 420,1115C350,1115 317,1135 280,1201C244,1265 246,1369 284,1433C314,1486 341,1507 387,1516C447,1527 490,1512 538,1463C582,1417 582,1417 637,1423C668,1426 697,1433 703,1439C716,1452 687,1530 655,1568C622,1607 545,1646 476,1659C410,1671 408,1671 365,1661Z" style="fill:white;fill-rule:nonzero;"/>
        <path d="M982,1645C958,1638 921,1620 900,1605C749,1501 725,1216 855,1072C919,1001 981,976 1095,975C1174,975 1192,978 1242,1003C1357,1060 1412,1160 1412,1315C1413,1431 1387,1503 1321,1570C1242,1652 1102,1683 982,1645ZM1176,1501C1228,1469 1253,1418 1258,1329C1262,1264 1259,1244 1240,1206C1208,1139 1169,1115 1093,1115C1046,1115 1025,1120 1003,1136C893,1218 899,1431 1014,1501C1055,1526 1135,1526 1176,1501Z" style="fill:white;fill-rule:nonzero;"/>
        <path d="M5265,1632C5162,1583 5101,1497 5082,1375C5056,1213 5131,1060 5265,998C5342,963 5465,965 5542,1003C5609,1036 5651,1080 5675,1144C5700,1208 5692,1220 5625,1220C5573,1220 5567,1217 5516,1171C5416,1080 5315,1094 5257,1205C5226,1266 5227,1371 5260,1430C5294,1490 5340,1520 5399,1520C5449,1520 5475,1506 5528,1451C5560,1419 5563,1418 5617,1423C5648,1426 5677,1433 5683,1439C5697,1453 5685,1491 5648,1546C5599,1618 5524,1654 5411,1658C5333,1661 5319,1658 5265,1632Z" style="fill:white;fill-rule:nonzero;"/>
        <path d="M1508,1644C1491,1639 1490,1615 1490,1316L1490,993L1563,987C1602,984 1636,983 1637,984C1639,986 1651,1339 1650,1374C1650,1379 1695,1310 1750,1219C1806,1129 1866,1040 1884,1021C1915,991 1925,987 1989,982L2060,977L2060,1640L1910,1640L1910,1444C1910,1337 1907,1251 1902,1254C1898,1256 1848,1335 1790,1430C1721,1542 1675,1608 1655,1620C1624,1639 1539,1653 1508,1644Z" style="fill:white;fill-rule:nonzero;"/>
        <path d="M2403,1640C2254,1635 2239,1633 2219,1614C2186,1581 2181,1527 2180,1243L2180,980L2250,980C2316,980 2321,981 2330,1006C2336,1020 2340,1081 2340,1141L2340,1250L2418,1250C2460,1250 2506,1256 2519,1263C2551,1279 2578,1318 2586,1358L2593,1390L2327,1390L2333,1431C2342,1501 2352,1505 2505,1505L2640,1505L2640,1650L2603,1648C2582,1647 2492,1644 2403,1640Z" style="fill:white;fill-rule:nonzero;"/>
        <path d="M2898,1640C2815,1629 2748,1581 2707,1505C2689,1471 2685,1444 2682,1329C2679,1206 2680,1188 2700,1142C2724,1086 2783,1026 2834,1005C2851,998 2929,989 3008,985L3151,978L3145,1124L3040,1121C2944,1119 2932,1121 2901,1142C2864,1167 2825,1223 2834,1239C2837,1244 2881,1248 2931,1249C2982,1250 3034,1256 3048,1263C3081,1279 3108,1317 3116,1358L3123,1390L2829,1390L2835,1413C2839,1425 2857,1450 2876,1469L2909,1504L3025,1508L3141,1513L3135,1645L3045,1646C2996,1647 2929,1644 2898,1640Z" style="fill:white;fill-rule:nonzero;"/>
        <path d="M3245,1639C3242,1631 3241,1481 3242,1305L3245,985L3323,982L3400,979L3400,1489L3446,1496C3518,1506 3581,1494 3608,1465C3650,1416 3633,1359 3566,1329C3494,1297 3470,1268 3470,1212C3470,1170 3477,1153 3510,1104C3588,989 3583,992 3688,986C3746,983 3780,985 3780,991C3780,996 3749,1042 3711,1092L3642,1184L3679,1210C3736,1252 3767,1295 3779,1350C3793,1415 3793,1416 3775,1478C3756,1540 3712,1593 3657,1622C3622,1639 3592,1643 3434,1648C3282,1652 3250,1651 3245,1639Z" style="fill:white;fill-rule:nonzero;"/>
        <path d="M4128,1640C4021,1635 4013,1633 3968,1602C3876,1539 3850,1476 3850,1316C3850,1142 3886,1068 3998,1013C4050,987 4066,985 4188,982L4320,978L4320,1120L4220,1120C4081,1120 4028,1145 4014,1218L4008,1250L4100,1250C4205,1250 4246,1264 4273,1309C4282,1325 4290,1350 4290,1364L4290,1390L4002,1390L4013,1420C4019,1437 4036,1462 4050,1475C4073,1497 4084,1499 4190,1502L4305,1505L4311,1651L4276,1648C4257,1646 4190,1643 4128,1640Z" style="fill:white;fill-rule:nonzero;"/>
        <path d="M4422,1319L4425,985L4581,979L4578,1180C4576,1290 4578,1379 4582,1378C4586,1376 4638,1297 4697,1201C4756,1105 4817,1018 4833,1006C4851,992 4880,985 4924,982L4987,978L4994,1010C5002,1052 5002,1238 4993,1468L4987,1650L4929,1650C4833,1650 4839,1664 4840,1448C4841,1344 4840,1257 4838,1255C4836,1252 4785,1329 4726,1425C4667,1521 4606,1609 4590,1620C4572,1633 4538,1642 4491,1646L4420,1653L4422,1319Z" style="fill:white;fill-rule:nonzero;"/>
        <path d="M5990,1640C5908,1632 5848,1601 5810,1549C5757,1475 5747,1435 5752,1298C5756,1156 5769,1121 5842,1053C5901,999 5931,991 6085,988L6215,985L6218,1053L6221,1120L6115,1120C5989,1120 5945,1137 5917,1195C5908,1215 5902,1235 5905,1239C5907,1244 5956,1249 6012,1252C6126,1257 6152,1267 6175,1316C6208,1385 6198,1390 6023,1390C5955,1390 5900,1392 5900,1395C5900,1410 5931,1457 5953,1478C5975,1499 5991,1502 6094,1507L6210,1513L6210,1650L6133,1649C6090,1648 6026,1644 5990,1640Z" style="fill:white;fill-rule:nonzero;"/>
        <path d="M3357,759C3193,733 3092,598 3102,422C3113,235 3230,129 3423,129C3527,129 3592,151 3644,204C3713,272 3734,397 3685,445C3662,469 3656,470 3521,470C3444,470 3379,467 3377,463C3368,446 3392,389 3415,374C3429,365 3469,355 3505,352C3578,347 3584,337 3544,296C3492,244 3385,238 3319,283C3215,354 3222,554 3330,612C3352,623 3386,630 3423,630C3476,630 3485,627 3514,598C3532,580 3551,557 3557,547C3566,529 3569,529 3629,545C3663,555 3693,567 3696,571C3705,586 3662,655 3622,692C3558,750 3457,776 3357,759Z" style="fill:white;fill-rule:nonzero;"/>
        <path d="M1492,480L1495,198L1528,169L1560,140L1915,140L1913,202L1912,265L1780,265C1675,265 1648,268 1640,280C1635,288 1630,397 1630,526L1630,757L1560,759L1489,761L1492,480Z" style="fill:white;fill-rule:nonzero;"/>
        <path d="M2165,750C2102,741 2064,721 2024,678C1971,623 1957,584 1952,480C1945,342 1961,279 2017,219C2078,154 2123,140 2272,140L2390,140L2390,265L2286,265C2172,265 2138,276 2114,322C2088,373 2092,377 2194,383C2297,389 2323,400 2345,446C2375,509 2374,510 2230,510C2087,510 2085,511 2115,569C2136,612 2181,625 2288,623L2380,621L2380,750L2318,750C2283,750 2246,752 2235,754C2224,756 2192,754 2165,750Z" style="fill:white;fill-rule:nonzero;"/>
        <path d="M2750,753L2685,749L2562,452C2495,289 2440,152 2440,148C2440,143 2475,140 2518,140L2595,140L2616,193C2628,221 2664,314 2696,398C2728,481 2758,550 2762,550C2765,550 2774,533 2780,513C2787,492 2803,449 2816,418C2829,386 2840,358 2840,355C2840,352 2813,350 2780,350C2724,350 2720,348 2720,327C2720,315 2727,294 2736,281C2756,253 2824,221 2862,220C2884,220 2894,212 2910,180L2930,140L3005,140C3046,140 3080,144 3080,148C3080,156 2943,496 2868,674C2850,718 2830,754 2825,755C2819,755 2786,754 2750,753Z" style="fill:white;fill-rule:nonzero;"/>
        <path d="M3787,754C3776,743 3779,395 3790,325C3803,244 3840,193 3912,156C3961,132 3980,128 4048,128C4139,128 4181,143 4238,194C4302,253 4310,289 4310,537L4310,750L4170,750L4170,556C4170,442 4166,350 4159,333C4133,264 4065,235 3996,264C3937,289 3930,317 3930,550L3930,750L3891,750C3870,750 3840,753 3824,756C3808,759 3792,758 3787,754Z" style="fill:white;fill-rule:nonzero;"/>
        <path d="M4533,726C4476,699 4427,642 4409,580C4391,522 4402,313 4424,270C4470,181 4525,151 4664,139C4720,134 4782,132 4803,136L4841,142L4838,203L4835,265L4730,265C4610,265 4578,277 4555,333C4536,378 4551,392 4614,389C4714,384 4738,389 4770,418C4786,433 4803,460 4806,478L4813,510L4683,510C4612,510 4551,513 4547,516C4538,525 4569,582 4594,602C4611,616 4636,620 4723,620L4830,620L4830,750L4708,750C4599,750 4579,747 4533,726Z" style="fill:white;fill-rule:nonzero;"/>
    </g>
</svg>
