<?xml version="1.0" encoding="UTF-8" standalone="no"?>
<!DOCTYPE svg PUBLIC "-//W3C//DTD SVG 1.1//EN" "http://www.w3.org/Graphics/SVG/1.1/DTD/svg11.dtd">
<svg width="100%" height="100%" viewBox="0 0 415 250" version="1.1" xmlns="http://www.w3.org/2000/svg" xmlns:xlink="http://www.w3.org/1999/xlink" xml:space="preserve" xmlns:serif="http://www.serif.com/" style="fill-rule:evenodd;clip-rule:evenodd;stroke-linejoin:round;stroke-miterlimit:2;">
    <path d="M236.9,28.2L250.3,31.7L252.4,23.5L238.6,20C231.1,18 225.9,20.9 224.1,27.9L218.5,49.6C218.2,50.6 218.3,51.5 218.8,52.3C219.3,53.1 220,53.6 221,53.9L226.1,55.2L229.7,41.2L245.2,45.2L247.3,37.1L231.8,33.1L232.4,30.8C233.2,27.8 234.1,27.5 236.9,28.2ZM193.5,16.3L171.2,20.8C170.2,21 169.4,21.5 168.9,22.3C168.4,23.1 168.2,24 168.4,25L172.8,46.9C173.5,50.5 175.1,53 177.5,54.5C179.1,55.5 181,56 183.2,56C184.3,56 185.5,55.9 186.8,55.6L200.7,52.8L199,44.5L185.4,47.3C182.6,47.9 181.7,47.6 181.1,44.4L180.6,42L196.3,38.8L194.6,30.6L178.9,33.8L178,28L195.1,24.5L193.5,16.3ZM288,47.3C288.4,46 288.7,44.1 286.6,42.5L285.2,41.5C283.1,39.9 281.4,40.6 280.2,41.4L248.4,61.9L256.7,66.6L277,53.5L273.5,65.3L270.4,63L265.1,66.8L271.7,71.7L270.2,77L277.5,83.7L288,47.3ZM115.8,41C140.9,19.4 173.3,7.5 207.3,7.5C241.2,7.5 273.7,19.4 298.8,41C301.4,43.2 303.9,45.6 306.3,48L311,42.2C308.7,39.9 306.2,37.6 303.7,35.4C277.2,12.6 243,0 207.3,0C171.6,0 137.4,12.6 111,35.4C108.5,37.6 106,39.9 103.7,42.2L108.4,48C110.8,45.6 113.2,43.2 115.8,41ZM207.3,69.1C231.5,69.1 253.7,80.3 266.8,96.6L271.4,91C257,73.8 233.4,62.1 207.3,62.1C181.2,62.1 157.6,73.7 143.2,91L147.8,96.6C160.9,80.3 183.1,69.1 207.3,69.1ZM146.4,65.7C144.7,67.1 142.7,67.8 140.9,67.6C138.7,67.3 137.3,66.4 135.1,63.7L122.3,48L115.4,53.6L129.3,70.7C132.3,74.3 135.6,76.3 139.6,76.6C140.1,76.6 140.5,76.7 141,76.7C144.8,76.7 148.4,75.4 151.9,72.6C155.8,69.4 157.9,65.8 158.4,61.4C158.9,57.4 157.6,53.7 154.7,50.1L140.8,33L133.9,38.6L146.7,54.3C148.9,57 149.5,58.5 149.3,60.8C149.2,62.5 148.1,64.3 146.4,65.7ZM154.7,127.5L167.6,127.5C174.7,127.5 177.4,131.2 177.4,136.1C177.4,141.1 174.7,144.7 167.6,144.7L154.7,144.7L154.7,127.5ZM179.1,187.4L198.5,187.4L181.7,157.1C189.3,152.8 194.7,146 194.7,136.1C194.7,121.3 182.7,112 167.5,112L137.6,112L137.6,187.4L154.8,187.4L154.8,160.3L164.1,160.3L179.1,187.4ZM131.8,231.5L150.6,231.5L150.6,222.4L131.8,222.4L131.8,214.2L152.2,214.2L152.2,205.1L121.7,205.1L121.7,249.2L152.7,249.2L152.7,240.1L131.8,240.1L131.8,231.5ZM175.5,231.8L180.7,218.3L185.9,231.8L175.5,231.8ZM175.3,205.2L157.4,249.3L168.8,249.3L172,240.9L189.2,240.9L192.4,249.3L203.8,249.3L186,205.2L175.3,205.2ZM366,157.6L374.8,134.4L383.6,157.6L366,157.6ZM384,112L365.7,112L335.1,187.4L354.6,187.4L360.1,173.1L389.6,173.1L395.1,187.4L414.6,187.4L384,112ZM223.5,233.4L237.3,233.4L237.3,236.5C235.1,239 231.6,240.8 227.2,240.8C219.6,240.8 213.8,236.3 213.8,227.1C213.8,217.8 220,213.4 226,213.4C231.5,213.4 235,216 236.5,221L246.1,218.2C243.8,209.9 237.4,204.4 226.1,204.4C214,204.4 203.7,213.1 203.7,227.2C203.7,241.3 213.9,250 226.2,250C235.8,250 241.7,246.2 246.5,240.3L246.5,225.6L223.5,225.6L223.5,233.4ZM278.6,231.3C278.6,237.2 275.6,240.9 270,240.9C264.5,240.9 261.4,237.2 261.4,231.3L261.4,205.1L251.3,205.1L251.3,231.9C251.3,244.2 259.8,250 269.9,250C280,250 288.5,244.1 288.5,231.9L288.5,205.1L278.4,205.1L278.4,231.3L278.6,231.3ZM304.4,231.5L323.2,231.5L323.2,222.4L304.4,222.4L304.4,214.2L324.8,214.2L324.8,205.1L294.3,205.1L294.3,249.2L325.3,249.2L325.3,240.1L304.4,240.1L304.4,231.5ZM96.1,205.2L86.1,205.2L86.1,249.3L117.1,249.3L117.1,240.2L96.1,240.2L96.1,205.2ZM126.6,112L109.4,112L109.4,156.8C109.4,166.9 104.2,173.2 94.8,173.2C85.3,173.2 80.2,167 80.2,156.8L80.2,112L62.8,112L62.8,157.8C62.8,178.8 77.3,188.7 94.7,188.7C112,188.7 126.6,178.7 126.6,157.8L126.6,112ZM303.2,127.5L314.6,127.5C322.2,127.5 325.3,131.5 325.3,137C325.3,142.5 322.3,146.5 314.6,146.5L303.2,146.5L303.2,127.5ZM286,187.4L303.2,187.4L303.2,162L315.5,162C330.4,162 342.5,153.4 342.5,137C342.5,120.6 330.3,112 315.5,112L286,112L286,187.4ZM239.3,125.8C250.1,125.8 258.6,133.5 258.6,149.7C258.6,165.8 250.1,173.6 239.3,173.6C228.5,173.6 220,165.9 220,149.7C220,133.5 228.5,125.8 239.3,125.8ZM239.3,189.1C261.5,189.1 275.8,174.1 275.8,149.7C275.8,125.3 261.5,110.3 239.3,110.3C217.1,110.3 202.8,125.3 202.8,149.7C202.8,174.1 217.1,189.1 239.3,189.1ZM17.2,157.1L49.3,157.1L49.3,141.6L17.2,141.6L17.2,127.5L52.1,127.5L52.1,112L0,112L0,187.4L53,187.4L53,171.9L17.2,171.9L17.2,157.1Z" style="fill:white;fill-rule:nonzero;"/>
</svg>
